<svg preserveAspectRatio="none" width="100%" height="100%" overflow="visible" style="display: block;" viewBox="0 0 53.4728 12.0135" fill="none" xmlns="http://www.w3.org/2000/svg">
<g id="Group">
<path id="Vector" d="M30.0668 10.3578V6.19554C30.0668 5.6694 30.0277 5.25158 29.9498 4.94211C29.8719 4.63263 29.7496 4.37997 29.5832 4.18412C29.4275 3.9985 29.2117 3.85135 28.9361 3.74302C28.6606 3.63468 28.3046 3.58069 27.8684 3.58069C27.3173 3.58069 26.8184 3.68903 26.3718 3.9057C25.9249 4.12236 25.5715 4.4936 25.3119 5.01974V3.59022C24.9894 3.66256 22.4017 4.29598 22.0693 4.26528V4.59029C22.4536 4.59029 22.7164 4.70144 22.8565 4.92305C22.9969 5.14501 23.067 5.48766 23.067 5.95205V10.3581C23.067 10.7915 22.9916 11.0854 22.8408 11.24C22.6901 11.3945 22.4341 11.4722 22.0707 11.4722V11.7693C22.5382 11.7693 25.9558 11.7693 26.1539 11.7693V11.4722C25.8524 11.4722 25.6366 11.3949 25.5068 11.24C25.3766 11.0854 25.3119 10.7911 25.3119 10.3581V6.05651C25.3119 5.54095 25.4598 5.1129 25.7564 4.77237C26.0526 4.43184 26.4188 4.26175 26.8554 4.26175C27.1256 4.26175 27.3283 4.31574 27.4634 4.42408C27.5985 4.53241 27.692 4.68203 27.7439 4.87294C27.7958 5.06385 27.8218 5.28828 27.8218 5.54589V10.3578C27.8218 10.7911 27.7596 11.0851 27.6348 11.2396C27.51 11.3942 27.2917 11.4718 26.9802 11.4718V11.769C27.1736 11.769 30.8689 11.769 31.0648 11.769V11.4718C30.7007 11.4718 30.4437 11.3945 30.2933 11.2396C30.1422 11.0851 30.0668 10.7911 30.0668 10.3578Z" fill="var(--fill-0, #202020)"/>
<path id="Vector_2" d="M39.1548 11.1239C39.009 10.9023 38.9365 10.5589 38.9365 10.0949V5.49327e-06C38.6143 0.0723462 36.0262 0.705768 35.6938 0.675068V1.00007C36.0782 1.00007 36.3406 1.11123 36.481 1.33284C36.6214 1.5548 36.6915 1.89745 36.6915 2.36184V4.16189C36.5418 4.01086 36.3683 3.89123 36.1692 3.80548C35.8207 3.65586 35.4182 3.58105 34.961 3.58105C34.2958 3.58105 33.7006 3.73561 33.1761 4.04509C32.6513 4.35456 32.2382 4.81648 31.9366 5.42979C31.6351 6.04381 31.4844 6.81979 31.4844 7.75846C31.4844 8.749 31.6195 9.55604 31.8897 10.1799C32.1599 10.8042 32.5368 11.2657 33.02 11.5646C33.5032 11.8639 34.0515 12.0135 34.6648 12.0135C35.2259 12.0135 35.6806 11.8716 36.0287 11.5879C36.315 11.355 36.535 11.0314 36.6915 10.6207V11.7968C36.9983 11.7968 39.5736 11.7968 39.9342 11.7968V11.4563C39.5601 11.4563 39.3002 11.3455 39.1548 11.1239ZM36.6915 9.98479C36.6435 10.3737 36.4984 10.6891 36.2549 10.9305C35.9743 11.2089 35.6572 11.3483 35.3038 11.3483C35.0126 11.3483 34.7555 11.235 34.5322 11.0078C34.3086 10.7812 34.1372 10.4072 34.0177 9.88598C33.8982 9.36513 33.8385 8.66642 33.8385 7.78951C33.8282 6.51067 33.979 5.56424 34.2908 4.95023C34.6026 4.33657 35.0236 4.02956 35.5537 4.02956C35.8033 4.02956 36.0394 4.08355 36.263 4.19188C36.4309 4.2734 36.5738 4.39409 36.6918 4.55394V9.98479H36.6915Z" fill="var(--fill-0, #202020)"/>
<path id="Vector_3" d="M42.7608 7.01564H47.1306C47.1306 5.79855 46.8707 4.92164 46.3509 4.38526C45.8311 3.84923 45.1139 3.58069 44.1994 3.58069C43.4613 3.58069 42.8042 3.73808 42.2275 4.05249C41.6508 4.36726 41.1985 4.84436 40.8711 5.48378C40.5436 6.12355 40.38 6.92283 40.38 7.88196C40.38 8.82063 40.5333 9.59414 40.8398 10.2029C41.1463 10.8116 41.5697 11.2654 42.1105 11.5643C42.651 11.8635 43.2743 12.0131 43.9815 12.0131C44.5635 12.0131 45.0623 11.8942 45.478 11.6571C45.8936 11.42 46.2367 11.1154 46.507 10.7442C46.7772 10.373 46.9749 9.99149 47.0993 9.59908L46.8188 9.50628C46.4963 10.0222 46.1507 10.3571 45.782 10.512C45.4129 10.6666 45.0727 10.7442 44.7608 10.7442C44.4383 10.7442 44.1215 10.6436 43.8097 10.4425C43.4979 10.2413 43.2405 9.91915 43.0378 9.47558C42.8351 9.03236 42.7338 8.45434 42.7338 7.74257C42.7338 7.59825 42.7363 7.45886 42.7416 7.32476C42.7463 7.21819 42.7534 7.11656 42.7608 7.01564ZM42.7267 6.72169C42.7843 5.73574 42.9343 5.02186 43.1786 4.5864C43.4332 4.1326 43.7422 3.9057 44.1063 3.9057C44.3662 3.9057 44.5742 4.03485 44.7299 4.29245C44.8856 4.55041 45.0001 4.89341 45.073 5.32146C45.1455 5.7495 45.1768 6.21636 45.1665 6.72169H42.7267V6.72169Z" fill="var(--fill-0, #202020)"/>
<path id="Vector_4" d="M21.1245 10.7477C20.7932 10.7477 20.5382 10.482 20.5318 9.96679C20.5318 9.96044 20.5308 9.95515 20.5308 9.94844V8.9325L20.5301 8.42329L20.5283 6.78557C20.5283 4.85813 19.6493 3.57893 17.6301 3.57893C15.8403 3.57893 14.6869 4.66228 14.4444 6.39528L14.5667 6.42528C14.8998 5.25053 15.5978 4.78367 16.5841 4.78367C17.7962 4.78367 18.2392 5.50637 18.2794 6.5756C18.2801 6.56925 18.2826 6.56361 18.2833 6.5569V6.7411C18.2833 6.68464 18.2815 6.62995 18.2794 6.5756C18.2541 6.76757 18.1567 6.93025 17.9839 7.06223C17.7813 7.21679 17.5164 7.35371 17.1889 7.47228C16.8614 7.5912 16.5187 7.70976 16.1599 7.82833C15.8015 7.9469 15.4609 8.09652 15.1388 8.2772C14.8166 8.45787 14.5542 8.68725 14.3516 8.96567C14.1489 9.24409 14.0476 9.60544 14.0476 10.0487C14.0476 10.5646 14.2033 11.0029 14.5151 11.3639C14.8269 11.7252 15.3308 11.9055 16.0273 11.9055C16.5365 11.9055 16.9805 11.8021 17.3603 11.596C17.7244 11.3981 18.0326 11.0992 18.2869 10.7018C18.2975 10.6853 18.3089 10.6694 18.3192 10.6524H18.3597C18.4885 11.3374 18.9478 11.8364 19.7286 11.9016C19.7777 11.9034 19.8261 11.9055 19.878 11.9055C20.0429 11.9055 20.2001 11.8939 20.3505 11.8724C20.7779 11.7961 21.1494 11.602 21.4413 11.2915C21.7123 11.0036 21.9142 10.6161 22.0298 10.1312L21.884 10.1154C21.7087 10.5995 21.3965 10.7477 21.1245 10.7477ZM17.7813 10.7756C17.6099 10.8684 17.4253 10.915 17.2277 10.915C16.9574 10.915 16.7288 10.8197 16.5418 10.6288C16.3548 10.4379 16.2613 10.1207 16.2613 9.67708C16.2613 9.26456 16.3391 8.93426 16.4952 8.68689C16.6509 8.43917 16.8458 8.23591 17.0797 8.0757C17.3137 7.91585 17.542 7.76623 17.7656 7.62684C17.9857 7.48992 18.1571 7.31983 18.2815 7.11763C18.2822 7.11657 18.2826 7.11586 18.2833 7.11516L18.2851 8.42364L18.2879 10.2805C18.2872 10.2812 17.9505 10.6838 17.7813 10.7756Z" fill="var(--fill-0, #202020)"/>
<path id="Vector_5" d="M53.2981 3.08136C52.0004 3.08136 51.0852 3.98756 50.8761 6.20578V3.59022C50.5536 3.66256 47.9698 4.29598 47.6373 4.26528V4.59029C48.0217 4.59029 48.2844 4.70144 48.4245 4.92305C48.5394 5.10479 48.6066 5.54977 48.6272 5.91888H48.6265C48.6265 5.93018 48.6272 5.94076 48.6272 5.95205V10.3581C48.6272 10.7915 48.5518 11.0854 48.4011 11.24C48.2503 11.3945 47.9929 11.4722 47.6295 11.4722V11.7972C47.8748 11.7972 52.0832 11.7972 52.3374 11.7972V11.4722C51.8489 11.4722 51.4823 11.3847 51.2384 11.2093C50.9941 11.0339 50.8722 10.6987 50.8722 10.2036V9.87821V7.34417C50.9771 5.66799 51.6263 5.20606 52.5682 5.20606C52.9653 5.20606 53.2192 5.25476 53.3941 5.34863H53.4727V3.08207H53.2981V3.08136Z" fill="var(--fill-0, #202020)"/>
<path id="Vector_6" d="M15.4346 1.15145V0.841976C15.2803 0.841976 12.6538 0.841976 12.3011 0.841976V1.15145C12.727 1.16204 13.0545 1.26261 13.2831 1.45317C13.5117 1.64408 13.6312 1.96132 13.6419 2.40489C13.6522 2.84846 13.404 3.44906 13.1331 4.24622L11.6497 8.1191L9.60276 2.45147C9.47796 2.07 9.42854 1.79158 9.45485 1.61585C9.48081 1.44046 9.58463 1.32189 9.76667 1.26014C9.94836 1.19803 10.1955 1.16239 10.5073 1.15181V0.842329C10.2765 0.842329 6.35832 0.842329 6.03299 0.842329V1.15181C6.19903 1.16239 6.35761 1.22415 6.50836 1.33742C6.65876 1.45105 6.78641 1.66772 6.89023 1.98708C6.89023 1.98708 10.6108 11.8275 10.7096 11.8275L13.9992 2.99279C14.2179 2.39783 14.4682 1.95885 14.7174 1.68536C14.967 1.41223 15.206 1.23438 15.4346 1.15145Z" fill="var(--fill-0, #202020)"/>
<path id="Vector_7" d="M6.10525 8.18615L3.83502 2.45112C3.76213 2.23445 3.71804 2.03119 3.7024 1.84028C3.68676 1.64937 3.72053 1.49481 3.80373 1.37589C3.88658 1.25768 4.03236 1.18251 4.24036 1.15181V0.842334C4.00178 0.842334 0.324978 0.842334 0 0.842334V1.15181C0.155733 1.1624 0.324978 1.23439 0.506667 1.36848C0.688356 1.50258 0.846934 1.76053 0.9824 2.142C0.9824 2.142 4.88142 11.8279 5.02009 11.8279L7.71022 5.4118C7.64338 5.23677 7.5776 5.06421 7.5136 4.89588L6.10525 8.18615Z" fill="var(--fill-0, #202020)"/>
</g>
</svg>
