<svg preserveAspectRatio="none" width="100%" height="100%" overflow="visible" style="display: block;" viewBox="0 0 15.1994 16" fill="none" xmlns="http://www.w3.org/2000/svg">
<g id="Group">
<path id="Vector" d="M5.19143 13.6635C8.92689 14.6569 12.7662 12.4567 13.7671 8.74966C14.768 5.04229 12.5514 1.23187 8.81596 0.23851C5.08049 -0.754851 1.24121 1.44536 0.240318 5.15238C-0.760571 8.8594 1.45632 12.6702 5.19143 13.6635ZM11.2554 3.46032C11.7966 3.45573 11.7802 3.12861 11.9836 2.93947C12.4793 3.54713 12.8597 4.2416 13.1047 4.98618C12.8337 5.02429 12.5575 5.03064 12.3018 4.84644C11.4556 4.35805 11.0474 4.72822 10.6613 4.44133C10.2752 4.15514 10.3694 3.46808 11.2554 3.46032ZM10.6421 6.16163C11.532 5.93014 12.6407 6.3056 13.42 6.90903C13.424 7.46729 13.355 8.03472 13.2025 8.59933C12.8106 10.05 11.9409 11.2484 10.8071 12.0756C10.641 11.2562 10.7943 10.6295 11.0112 10.0599C11.3294 9.22428 10.5539 9.20876 9.33116 8.13176C8.39178 7.30496 9.74467 6.39523 10.6421 6.16163ZM1.33258 3.97235C2.04796 2.63105 3.21383 1.61087 4.58521 1.05508C4.90272 1.18811 5.32085 1.2654 5.81578 1.23434C7.43818 1.13201 8.22147 1.32186 8.25383 2.23229C8.28618 3.14272 6.07569 3.08873 5.1701 3.97058C4.2645 4.85244 2.83623 3.75462 2.54254 4.90996C2.24921 6.06494 3.66218 6.46369 4.51232 6.20044C5.3621 5.93755 6.00458 6.82116 6.35552 7.65079C6.70645 8.48041 7.54343 8.35443 7.50112 9.0609C7.35427 10.2565 6.50058 9.65621 5.58681 10.7752C4.92761 11.5822 4.54325 12.3141 4.46218 12.799C4.0949 12.6419 3.7493 12.4528 3.42538 12.2365C3.43961 12.006 3.56974 11.7552 3.74716 11.403C4.80174 8.99703 2.42272 9.00267 3.23445 7.60103C3.63907 6.88256 1.97507 6.397 1.94414 5.13721C1.9317 4.65906 1.63801 4.30053 1.33258 3.97235Z" fill="var(--fill-0, #202020)"/>
<path id="Vector_2" d="M15.1994 6.95103C15.1994 4.77833 14.3468 2.73586 12.799 1.19976L12.4232 1.57241C13.8707 3.00899 14.6682 4.91913 14.6682 6.95103C14.6682 8.98292 13.871 10.8931 12.4232 12.3296C9.43511 15.2956 4.57253 15.2956 1.58444 12.3296L1.20898 12.7026C2.60524 14.0884 4.38409 14.8683 6.21093 15.043C6.19991 15.3122 6.14409 15.4989 6.04347 15.6023C5.93004 15.7187 5.73769 15.7766 5.46427 15.7766V16C5.81591 16 8.38551 16 8.53449 16V15.7766C8.30764 15.7766 8.14551 15.7184 8.04809 15.6023C7.95956 15.4975 7.91191 15.3062 7.90338 15.0302C9.69289 14.8358 11.4301 14.0612 12.799 12.7023C14.3468 11.1662 15.1994 9.12372 15.1994 6.95103Z" fill="var(--fill-0, #202020)"/>
</g>
</svg>
